<svg width="10" height="12" viewBox="0 0 10 12" fill="none" xmlns="http://www.w3.org/2000/svg">
<path d="M8.76585 4.63123C8.76585 4.63123 8.47767 8.27192 8.31049 9.80549C8.23088 10.538 7.78667 10.9672 7.05905 10.9807C5.67439 11.0061 4.28814 11.0077 2.90402 10.978C2.20399 10.9634 1.76721 10.5288 1.68919 9.80928C1.52095 8.26219 1.23436 4.63123 1.23436 4.63123M9.5 2.88602H0.5M7.76581 2.88602C7.34919 2.88602 6.99042 2.58601 6.90869 2.17032L6.77973 1.51299C6.70012 1.20974 6.43051 1 6.12322 1H3.87667C3.56938 1 3.29978 1.20974 3.22017 1.51299L3.0912 2.17032C3.00947 2.58601 2.6507 2.88602 2.23408 2.88602" stroke="#C4C4C4" stroke-linecap="round" stroke-linejoin="round"/>
</svg>
