<svg width="24" height="24" viewBox="0 0 24 24" fill="none" xmlns="http://www.w3.org/2000/svg">
<path fill-rule="evenodd" clip-rule="evenodd" d="M9.47216 1.25H9.5H11.5H12C12.4142 1.25 12.75 1.58579 12.75 2C12.75 2.41421 12.4142 2.75 12 2.75H11.5H9.5C8.32488 2.75 7.48111 2.75041 6.81528 2.79584C6.15618 2.84081 5.72641 2.92737 5.3736 3.07351C4.33223 3.50486 3.50486 4.33223 3.07351 5.3736C2.92737 5.72641 2.84081 6.15618 2.79584 6.81528C2.75041 7.48111 2.75 8.32488 2.75 9.5V10C2.75 10.4142 2.41421 10.75 2 10.75C1.58579 10.75 1.25 10.4142 1.25 10V9.5V9.47216V9.47214C1.25 8.33086 1.25 7.43603 1.29932 6.71317C1.3495 5.9777 1.45323 5.36562 1.68769 4.79957C2.27128 3.39066 3.39066 2.27128 4.79957 1.68769C5.36562 1.45323 5.9777 1.3495 6.71317 1.29932C7.43603 1.25 8.33086 1.25 9.47214 1.25H9.47216ZM22 11.25C22.4142 11.25 22.75 11.5858 22.75 12V12.5V14V14.0336V14.0336V14.0337C22.75 15.4053 22.75 16.4807 22.6794 17.3451C22.6075 18.2252 22.4586 18.9523 22.1233 19.6104C21.572 20.6924 20.6924 21.572 19.6104 22.1233C18.9523 22.4586 18.2252 22.6075 17.3451 22.6794C16.4807 22.75 15.4053 22.75 14.0337 22.75H14.0336H14.0336H14H9.5H9.47215C8.33087 22.75 7.43603 22.75 6.71317 22.7007C5.9777 22.6505 5.36562 22.5468 4.79957 22.3123C3.39066 21.7287 2.27128 20.6093 1.68769 19.2004C1.45323 18.6344 1.3495 18.0223 1.29932 17.2868C1.25 16.564 1.25 15.6691 1.25 14.5279V14.5278V14.5V14C1.25 13.5858 1.58579 13.25 2 13.25C2.41421 13.25 2.75 13.5858 2.75 14V14.5C2.75 15.6751 2.75041 16.5189 2.79584 17.1847C2.84081 17.8438 2.92737 18.2736 3.07351 18.6264C3.50486 19.6678 4.33223 20.4951 5.3736 20.9265C5.72641 21.0726 6.15618 21.1592 6.81528 21.2042C7.48111 21.2496 8.32488 21.25 9.5 21.25H14C15.4125 21.25 16.4268 21.2494 17.2229 21.1844C18.0103 21.12 18.518 20.9964 18.9295 20.7868C19.7291 20.3793 20.3793 19.7291 20.7868 18.9295C20.9964 18.518 21.12 18.0103 21.1844 17.2229C21.2494 16.4268 21.25 15.4125 21.25 14V12.5V12C21.25 11.5858 21.5858 11.25 22 11.25ZM19.8408 3.90345C19.364 3.47009 18.636 3.47009 18.1592 3.90345C18.1405 3.92046 18.1161 3.94456 18.0303 4.03033L17.7233 4.33733C17.6991 5.41352 18.5865 6.30094 19.6627 6.27667L19.9697 5.96967C20.0554 5.8839 20.0795 5.85949 20.0965 5.84079C20.5299 5.36403 20.5299 4.63597 20.0965 4.15921C20.0795 4.14051 20.0554 4.1161 19.9697 4.03033C19.8839 3.94456 19.8595 3.92046 19.8408 3.90345ZM20.5357 7.52498L21.0303 7.03033L21.0429 7.01777L21.043 7.01767C21.1103 6.95037 21.1622 6.89853 21.2065 6.84973C22.1599 5.80086 22.1599 4.19914 21.2065 3.15027C21.1621 3.10146 21.1103 3.0496 21.0429 2.98227L21.0429 2.98224L21.0303 2.96967L21.0177 2.95707L21.0177 2.95704L21.0177 2.95702C20.9504 2.8897 20.8985 2.83785 20.8497 2.79348C19.8009 1.84008 18.1991 1.84008 17.1503 2.79348C17.1015 2.83784 17.0496 2.88969 16.9823 2.957L16.9823 2.95704L16.9822 2.95709L16.9697 2.96967L16.475 3.46432C16.4711 3.46812 16.4673 3.47196 16.4635 3.47584L12.7232 7.21619L12.6791 7.26028L12.679 7.26029L12.679 7.2603C12.2545 7.68477 11.9807 7.9585 11.755 8.27245C11.555 8.55063 11.3857 8.84963 11.2501 9.16423C11.097 9.51928 11.0031 9.8949 10.8576 10.4774L10.8425 10.5379L10.2724 12.8181C10.2085 13.0737 10.2834 13.344 10.4697 13.5303C10.656 13.7166 10.9263 13.7915 11.1819 13.7276L14.4959 12.8991C15.0767 12.7539 15.607 12.4536 16.0303 12.0303L16.5303 11.5303C16.8232 11.2374 16.8232 10.7626 16.5303 10.4697C16.2374 10.1768 15.7626 10.1768 15.4697 10.4697L14.9697 10.9697C14.7386 11.2007 14.4491 11.3646 14.1321 11.4439L12.0308 11.9692L12.2977 10.9017C12.4634 10.2387 12.5285 9.98777 12.6275 9.75815C12.7203 9.5429 12.8361 9.33832 12.9729 9.14799C13.1189 8.94495 13.3006 8.76007 13.7838 8.27685L16.4524 5.60827C16.798 6.49363 17.5064 7.20196 18.3917 7.54761L17.9697 7.96967C17.6768 8.26256 17.6768 8.73744 17.9697 9.03033C18.2626 9.32322 18.7374 9.32322 19.0303 9.03033L20.5242 7.5365C20.528 7.5327 20.5319 7.52886 20.5357 7.52498Z" fill="#22272F"/>
</svg>
