<svg width="36" height="35" viewBox="0 0 36 35" fill="none" xmlns="http://www.w3.org/2000/svg">
<path d="M2.16667 8.28335C2.16667 6.60364 2.83393 4.99273 4.02166 3.805C5.20939 2.61727 6.8203 1.95001 8.5 1.95001H27.5C29.1797 1.95001 30.7906 2.61727 31.9783 3.805C33.1661 4.99273 33.8333 6.60364 33.8333 8.28335V27.2833C33.8333 28.963 33.1661 30.574 31.9783 31.7617C30.7906 32.9494 29.1797 33.6167 27.5 33.6167H8.5C6.8203 33.6167 5.20939 32.9494 4.02166 31.7617C2.83393 30.574 2.16667 28.963 2.16667 27.2833V8.28335Z" stroke="#00B4E5" stroke-width="2.5" stroke-linecap="round" stroke-linejoin="round"/>
<path d="M12.4583 16.2C14.6445 16.2 16.4167 14.4278 16.4167 12.2417C16.4167 10.0555 14.6445 8.28333 12.4583 8.28333C10.2722 8.28333 8.5 10.0555 8.5 12.2417C8.5 14.4278 10.2722 16.2 12.4583 16.2Z" stroke="#00B4E5" stroke-width="2.5" stroke-linecap="round" stroke-linejoin="round"/>
<path d="M21.9995 18.7666L8.5 33.6167H27.7106C29.3344 33.6167 30.8918 32.9716 32.04 31.8233C33.1883 30.6751 33.8333 29.1178 33.8333 27.4939V27.2833C33.8333 26.5455 33.5563 26.2621 33.0575 25.7158L26.6767 18.7571C26.3793 18.4327 26.0175 18.1738 25.6145 17.997C25.2115 17.8202 24.7761 17.7294 24.336 17.7303C23.8959 17.7312 23.4608 17.8238 23.0585 18.0022C22.6563 18.1807 22.2956 18.441 21.9995 18.7666V18.7666Z" stroke="#00B4E5" stroke-width="2.5" stroke-linecap="round" stroke-linejoin="round"/>
</svg>
