<svg width="742" height="428" viewBox="0 0 742 428" fill="none" xmlns="http://www.w3.org/2000/svg">
<g clip-path="url(#clip0_2435_3167)">
<path d="M610.415 255.811C667.572 319.02 501.885 410.113 368.006 410.113C234.127 410.113 141.503 339.532 125.596 255.811C87.0271 52.8162 454.215 -76.2063 368.006 101.509C242.346 360.55 565.403 206.033 610.415 255.811Z" fill="#18527D" fill-opacity="0.07"/>
<path d="M205.447 95.5528C207.91 95.5528 209.907 93.556 209.907 91.0928C209.907 88.6296 207.91 86.6328 205.447 86.6328C202.984 86.6328 200.987 88.6296 200.987 91.0928C200.987 93.556 202.984 95.5528 205.447 95.5528Z" fill="white"/>
<path d="M294.683 105.612C297.42 105.612 299.639 103.393 299.639 100.657C299.639 97.9198 297.42 95.7012 294.683 95.7012C291.947 95.7012 289.728 97.9198 289.728 100.657C289.728 103.393 291.947 105.612 294.683 105.612Z" fill="#F1F1F1"/>
<path d="M182.688 257.253C184.33 257.253 185.661 255.922 185.661 254.28C185.661 252.638 184.33 251.307 182.688 251.307C181.046 251.307 179.714 252.638 179.714 254.28C179.714 255.922 181.046 257.253 182.688 257.253Z" fill="#E6E6E6"/>
<path d="M390.821 359.335C392.463 359.335 393.794 358.004 393.794 356.362C393.794 354.72 392.463 353.389 390.821 353.389C389.179 353.389 387.848 354.72 387.848 356.362C387.848 358.004 389.179 359.335 390.821 359.335Z" fill="#E6E6E6"/>
<path d="M197.059 199.77C197.881 199.77 198.546 199.105 198.546 198.284C198.546 197.462 197.881 196.797 197.059 196.797C196.238 196.797 195.573 197.462 195.573 198.284C195.573 199.105 196.238 199.77 197.059 199.77Z" fill="#E6E6E6"/>
<path d="M319.956 310.77C320.777 310.77 321.443 310.105 321.443 309.284C321.443 308.462 320.777 307.797 319.956 307.797C319.135 307.797 318.469 308.462 318.469 309.284C318.469 310.105 319.135 310.77 319.956 310.77Z" fill="#E6E6E6"/>
<path d="M543.451 296.399C544.272 296.399 544.938 295.734 544.938 294.912C544.938 294.091 544.272 293.426 543.451 293.426C542.63 293.426 541.964 294.091 541.964 294.912C541.964 295.734 542.63 296.399 543.451 296.399Z" fill="#E6E6E6"/>
<path d="M473.578 340.505C474.399 340.505 475.065 339.839 475.065 339.018C475.065 338.197 474.399 337.531 473.578 337.531C472.757 337.531 472.091 338.197 472.091 339.018C472.091 339.839 472.757 340.505 473.578 340.505Z" fill="#E6E6E6"/>
<path d="M400.731 286.983C401.552 286.983 402.218 286.318 402.218 285.496C402.218 284.675 401.552 284.01 400.731 284.01C399.91 284.01 399.245 284.675 399.245 285.496C399.245 286.318 399.91 286.983 400.731 286.983Z" fill="#E6E6E6"/>
<path d="M306.576 140.302C307.397 140.302 308.063 139.636 308.063 138.815C308.063 137.994 307.397 137.328 306.576 137.328C305.755 137.328 305.089 137.994 305.089 138.815C305.089 139.636 305.755 140.302 306.576 140.302Z" fill="#E6E6E6"/>
<path d="M318.47 66.9617C319.291 66.9617 319.956 66.2961 319.956 65.475C319.956 64.6539 319.291 63.9883 318.47 63.9883C317.649 63.9883 316.983 64.6539 316.983 65.475C316.983 66.2961 317.649 66.9617 318.47 66.9617Z" fill="#E6E6E6"/>
<path d="M311.533 375.688C312.354 375.688 313.019 375.023 313.019 374.202C313.019 373.38 312.354 372.715 311.533 372.715C310.712 372.715 310.046 373.38 310.046 374.202C310.046 375.023 310.712 375.688 311.533 375.688Z" fill="#E6E6E6"/>
<path d="M238.19 344.471C239.011 344.471 239.677 343.806 239.677 342.985C239.677 342.164 239.011 341.498 238.19 341.498C237.369 341.498 236.703 342.164 236.703 342.985C236.703 343.806 237.369 344.471 238.19 344.471Z" fill="#E6E6E6"/>
<path d="M470.604 290.95C471.425 290.95 472.091 290.284 472.091 289.463C472.091 288.642 471.425 287.977 470.604 287.977C469.783 287.977 469.118 288.642 469.118 289.463C469.118 290.284 469.783 290.95 470.604 290.95Z" fill="#E6E6E6"/>
<path d="M383.33 289.829C386.136 288.03 382.724 277.699 375.708 266.755C368.692 255.811 360.729 248.397 357.923 250.196C355.117 251.995 358.529 262.325 365.545 273.27C372.561 284.214 380.524 291.628 383.33 289.829Z" fill="#403F47"/>
<path d="M453.891 305.845L300.337 305.899C292.622 305.901 285.712 301.915 281.853 295.236C279.923 291.895 278.958 288.231 278.957 284.567C278.955 280.902 279.918 277.237 281.846 273.896L358.574 134.217C362.429 127.534 369.336 123.544 377.051 123.541C384.765 123.538 391.675 127.524 395.535 134.204L472.369 273.848C474.294 277.179 475.257 280.839 475.257 284.501C475.257 288.163 474.295 291.828 472.367 295.17C468.512 301.852 461.605 305.843 453.891 305.845ZM280.887 284.564C280.886 287.9 297.831 280.712 299.586 283.75C303.097 289.827 293.318 303.975 300.336 303.973C300.336 303.973 467.192 300.286 470.699 294.207C472.452 291.168 473.328 287.833 473.327 284.499C473.326 281.166 472.447 277.832 470.692 274.794L393.857 135.15C390.355 129.091 384.069 125.465 377.051 125.467C370.036 125.469 280.887 281.228 280.887 284.564Z" fill="#403F47"/>
<path d="M421.857 275.033C460.681 275.033 492.154 243.559 492.154 204.735C492.154 165.911 460.681 134.438 421.857 134.438C383.032 134.438 351.559 165.911 351.559 204.735C351.559 243.559 383.032 275.033 421.857 275.033Z" fill="#403F47"/>
<path d="M421.869 247.817C425.433 247.817 428.323 244.927 428.323 241.363C428.323 237.798 425.433 234.908 421.869 234.908C418.304 234.908 415.414 237.798 415.414 241.363C415.414 244.927 418.304 247.817 421.869 247.817Z" fill="#EFF3F6"/>
<path d="M421.841 161.63C421.248 165.57 422.311 166.395 422.316 183.379C422.322 200.364 425.846 223.137 421.862 223.138C417.878 223.14 416.421 176.142 402.587 171.983C386.321 167.092 423.76 148.877 421.841 161.63Z" fill="#EFF3F6"/>
<path d="M327.507 240.636L321.156 254.055C328.834 248.549 340.827 243.803 350.371 241.261C341.478 236.966 330.598 230.041 324.097 223.184L327.75 237.363C284.923 228.64 254.167 195.785 254.154 158.149L252.607 157.617C252.621 196.929 282.951 231.729 327.507 240.636Z" fill="#403F47"/>
</g>
<defs>
<clipPath id="clip0_2435_3167">
<path d="M0 44.7659C0 20.0424 20.0424 0 44.7658 0H697.15C721.873 0 741.916 20.0424 741.916 44.7658V427.329H0V44.7659Z" fill="white"/>
</clipPath>
</defs>
</svg>
